<svg width="60" height="31" viewBox="0 0 60 31" fill="none" xmlns="http://www.w3.org/2000/svg">
<path d="M9.90694 11H9.05894L7.73094 7.688H2.69094L1.36294 11H0.514938L4.73894 0.44H5.68294L9.90694 11ZM2.97894 6.952H7.44294L5.20294 1.224L2.97894 6.952ZM11.6349 11V3H12.3549L12.4029 4.664C12.6376 4.088 13.0163 3.64 13.5389 3.32C14.0723 3 14.6643 2.84 15.3149 2.84C16.0083 2.84 16.6056 3.00533 17.1069 3.336C17.6189 3.66667 17.9709 4.152 18.1629 4.792C18.3016 4.38667 18.5256 4.04 18.8349 3.752C19.1443 3.45333 19.5069 3.224 19.9229 3.064C20.3389 2.904 20.7709 2.824 21.2189 2.824C21.7736 2.824 22.2749 2.936 22.7229 3.16C23.1816 3.37333 23.5443 3.704 23.8109 4.152C24.0883 4.58933 24.2269 5.13867 24.2269 5.8V10.984H23.4269V5.88C23.4269 5.09067 23.2136 4.504 22.7869 4.12C22.3709 3.72533 21.8163 3.528 21.1229 3.528C20.6216 3.528 20.1576 3.65067 19.7309 3.896C19.3043 4.13067 18.9629 4.46667 18.7069 4.904C18.4616 5.33067 18.3389 5.82667 18.3389 6.392V11H17.5389V5.896C17.5389 5.10667 17.3256 4.52 16.8989 4.136C16.4723 3.74133 15.9176 3.544 15.2349 3.544C14.7549 3.544 14.3016 3.66133 13.8749 3.896C13.4483 4.13067 13.1016 4.46667 12.8349 4.904C12.5683 5.34133 12.4349 5.864 12.4349 6.472V11H11.6349ZM30.2583 2.84C31.005 2.84 31.661 3.00533 32.2263 3.336C32.8023 3.66667 33.2503 4.14667 33.5703 4.776C33.901 5.39467 34.0663 6.136 34.0663 7C34.0663 7.864 33.901 8.61067 33.5703 9.24C33.2503 9.85867 32.8023 10.3333 32.2263 10.664C31.661 10.9947 31.005 11.16 30.2583 11.16C29.5116 11.16 28.8503 10.9947 28.2743 10.664C27.709 10.3333 27.261 9.85867 26.9303 9.24C26.6103 8.61067 26.4503 7.864 26.4503 7C26.4503 6.136 26.6103 5.39467 26.9303 4.776C27.261 4.14667 27.709 3.66667 28.2743 3.336C28.8503 3.00533 29.5116 2.84 30.2583 2.84ZM30.2583 3.528C29.6503 3.528 29.1223 3.66667 28.6743 3.944C28.2263 4.22133 27.8743 4.62133 27.6183 5.144C27.373 5.656 27.2503 6.27467 27.2503 7C27.2503 7.71467 27.373 8.33333 27.6183 8.856C27.8743 9.37867 28.2263 9.77867 28.6743 10.056C29.1223 10.3333 29.6503 10.472 30.2583 10.472C30.8663 10.472 31.3943 10.3333 31.8423 10.056C32.2903 9.77867 32.637 9.37867 32.8823 8.856C33.1383 8.33333 33.2663 7.71467 33.2663 7C33.2663 6.27467 33.1383 5.656 32.8823 5.144C32.637 4.62133 32.2903 4.22133 31.8423 3.944C31.3943 3.66667 30.8663 3.528 30.2583 3.528ZM39.1697 11.16C38.615 11.16 38.119 11.0587 37.6817 10.856C37.2444 10.6533 36.8977 10.3387 36.6417 9.912C36.3964 9.47467 36.2737 8.93067 36.2737 8.28V3H37.0737V8.088C37.0737 8.92 37.271 9.52267 37.6657 9.896C38.071 10.2693 38.6364 10.456 39.3617 10.456C39.7884 10.456 40.1724 10.3813 40.5137 10.232C40.8657 10.0827 41.1644 9.87467 41.4097 9.608C41.655 9.34133 41.8417 9.03733 41.9697 8.696C42.1084 8.344 42.1777 7.976 42.1777 7.592V3H42.9777V11H42.2577L42.2257 9.352C41.991 9.91733 41.607 10.36 41.0737 10.68C40.5404 11 39.9057 11.16 39.1697 11.16ZM45.8224 11V3H46.5424L46.6064 5L46.4784 4.888C46.6278 4.45067 46.8518 4.07733 47.1504 3.768C47.4491 3.45867 47.8064 3.22933 48.2224 3.08C48.6384 2.92 49.0864 2.84 49.5664 2.84C50.1638 2.84 50.6918 2.952 51.1504 3.176C51.6091 3.4 51.9664 3.73067 52.2224 4.168C52.4891 4.60533 52.6224 5.15467 52.6224 5.816V11H51.8224V6.072C51.8224 5.19733 51.6038 4.55733 51.1664 4.152C50.7398 3.74667 50.1798 3.544 49.4864 3.544C48.9851 3.544 48.5158 3.66133 48.0784 3.896C47.6518 4.12 47.2998 4.45067 47.0224 4.888C46.7558 5.32533 46.6224 5.85867 46.6224 6.488V11H45.8224ZM56.5098 0.775999V8.888C56.5098 9.38933 56.6271 9.77333 56.8618 10.04C57.1071 10.296 57.4591 10.424 57.9178 10.424C58.2165 10.424 58.4778 10.376 58.7018 10.28C58.9365 10.1733 59.1445 10.024 59.3258 9.832L59.6298 10.488C59.4271 10.6907 59.1711 10.856 58.8618 10.984C58.5525 11.1013 58.2058 11.16 57.8218 11.16C57.4058 11.16 57.0378 11.0853 56.7178 10.936C56.3978 10.776 56.1471 10.536 55.9658 10.216C55.7951 9.896 55.7098 9.49067 55.7098 9V1L56.5098 0.775999ZM59.5018 3V3.688H54.1098V3H59.5018ZM17.2919 19.44L13.2279 30H12.2839L8.20394 19.44H9.06794L12.1879 27.616L12.7479 29.248L13.3079 27.616L16.4439 19.44H17.2919ZM23.1091 24.736C23.1091 24.0427 22.9224 23.504 22.5491 23.12C22.1757 22.736 21.6424 22.544 20.9491 22.544C20.3411 22.544 19.8184 22.6773 19.3811 22.944C18.9437 23.2 18.6184 23.632 18.4051 24.24L17.7491 23.824C17.9837 23.1947 18.3731 22.7093 18.9171 22.368C19.4717 22.016 20.1544 21.84 20.9651 21.84C21.5517 21.84 22.0637 21.9467 22.5011 22.16C22.9491 22.3627 23.2957 22.6667 23.5411 23.072C23.7864 23.4773 23.9091 23.984 23.9091 24.592V28.592C23.9091 29.1573 24.1651 29.44 24.6771 29.44C24.9011 29.44 25.0931 29.4027 25.2531 29.328L25.2051 29.968C25.0237 30.064 24.7891 30.112 24.5011 30.112C24.2557 30.112 24.0264 30.064 23.8131 29.968C23.5997 29.872 23.4237 29.712 23.2851 29.488C23.1571 29.264 23.0931 28.96 23.0931 28.576V28.144L23.3171 28.128C23.2211 28.5867 23.0077 28.9707 22.6771 29.28C22.3571 29.5787 21.9837 29.8027 21.5571 29.952C21.1304 30.0907 20.7037 30.16 20.2771 30.16C19.7757 30.16 19.3277 30.08 18.9331 29.92C18.5384 29.76 18.2291 29.5307 18.0051 29.232C17.7811 28.9227 17.6691 28.544 17.6691 28.096C17.6691 27.4987 17.8664 27.0187 18.2611 26.656C18.6664 26.2827 19.2317 26.0267 19.9571 25.888L23.2691 25.232V25.904L20.3571 26.48C19.7277 26.608 19.2584 26.7947 18.9491 27.04C18.6397 27.2853 18.4851 27.616 18.4851 28.032C18.4851 28.48 18.6504 28.832 18.9811 29.088C19.3117 29.3333 19.7811 29.456 20.3891 29.456C20.6984 29.456 21.0131 29.4133 21.3331 29.328C21.6531 29.2427 21.9464 29.1093 22.2131 28.928C22.4904 28.736 22.7091 28.5013 22.8691 28.224C23.0291 27.936 23.1091 27.5893 23.1091 27.184V24.736ZM26.9006 30V22H27.5726L27.6686 23.664C27.8712 23.1093 28.1966 22.6667 28.6446 22.336C29.0926 22.0053 29.6312 21.84 30.2606 21.84C30.4739 21.84 30.6659 21.8613 30.8366 21.904C31.0072 21.9467 31.1512 22.016 31.2686 22.112L31.0766 22.816C30.9592 22.7413 30.8312 22.6827 30.6926 22.64C30.5539 22.5973 30.3459 22.576 30.0686 22.576C29.6632 22.576 29.2792 22.704 28.9166 22.96C28.5539 23.2053 28.2606 23.552 28.0366 24C27.8126 24.4373 27.7006 24.944 27.7006 25.52V30H26.9006ZM33.3474 20.448C33.1448 20.448 32.9794 20.3893 32.8514 20.272C32.7341 20.144 32.6754 19.9787 32.6754 19.776C32.6754 19.5733 32.7341 19.4133 32.8514 19.296C32.9794 19.168 33.1448 19.104 33.3474 19.104C33.5501 19.104 33.7101 19.168 33.8274 19.296C33.9554 19.4133 34.0194 19.5733 34.0194 19.776C34.0194 19.9787 33.9554 20.144 33.8274 20.272C33.7101 20.3893 33.5501 20.448 33.3474 20.448ZM33.7474 22V30H32.9474V22H33.7474ZM39.8677 30.16C39.1317 30.16 38.4757 29.9947 37.8997 29.664C37.3237 29.3333 36.8704 28.8587 36.5397 28.24C36.2197 27.6107 36.0597 26.864 36.0597 26C36.0597 25.136 36.2197 24.3947 36.5397 23.776C36.8704 23.1467 37.313 22.6667 37.8677 22.336C38.433 22.0053 39.0677 21.84 39.7717 21.84C40.497 21.84 41.1157 22 41.6277 22.32C42.1397 22.64 42.5344 23.088 42.8117 23.664C43.089 24.2293 43.2277 24.8853 43.2277 25.632C43.2277 25.728 43.2224 25.824 43.2117 25.92C43.2117 26.0053 43.2064 26.0853 43.1957 26.16H36.5557V25.44H42.8437L42.4437 25.552C42.433 24.6347 42.1877 23.904 41.7077 23.36C41.2384 22.816 40.5877 22.544 39.7557 22.544C39.1797 22.544 38.673 22.6827 38.2357 22.96C37.7984 23.2267 37.457 23.6213 37.2117 24.144C36.9664 24.656 36.8437 25.2747 36.8437 26C36.8437 26.7147 36.9664 27.3333 37.2117 27.856C37.4677 28.3787 37.8197 28.7787 38.2677 29.056C38.7264 29.3227 39.2544 29.456 39.8517 29.456C40.4704 29.456 40.9984 29.3227 41.4357 29.056C41.8837 28.7893 42.2304 28.4213 42.4757 27.952L43.1157 28.32C42.9237 28.704 42.6677 29.0347 42.3477 29.312C42.0277 29.5787 41.6597 29.7867 41.2437 29.936C40.8277 30.0853 40.369 30.16 39.8677 30.16ZM48.2139 30.16C47.4033 30.16 46.6833 29.9947 46.0539 29.664C45.4353 29.3333 44.9979 28.8587 44.7419 28.24L45.4299 27.776C45.6219 28.3093 45.9633 28.7253 46.4539 29.024C46.9553 29.312 47.5633 29.456 48.2779 29.456C48.9819 29.456 49.5313 29.3173 49.9259 29.04C50.3313 28.7627 50.5339 28.3947 50.5339 27.936C50.5339 27.6267 50.4326 27.36 50.2299 27.136C50.0379 26.9013 49.6699 26.7253 49.1259 26.608L47.2539 26.208C46.4966 26.048 45.9526 25.792 45.6219 25.44C45.2913 25.0773 45.1259 24.64 45.1259 24.128C45.1259 23.7013 45.2539 23.3173 45.5099 22.976C45.7659 22.6347 46.1179 22.3627 46.5659 22.16C47.0246 21.9467 47.5579 21.84 48.1659 21.84C48.9659 21.84 49.6273 22 50.1499 22.32C50.6726 22.6293 51.0406 23.0987 51.2539 23.728L50.5819 24.16C50.4219 23.5947 50.1233 23.184 49.6859 22.928C49.2593 22.672 48.7526 22.544 48.1659 22.544C47.7179 22.544 47.3233 22.6133 46.9819 22.752C46.6513 22.88 46.3899 23.0613 46.1979 23.296C46.0166 23.52 45.9259 23.7813 45.9259 24.08C45.9259 24.3893 46.0326 24.672 46.2459 24.928C46.4593 25.1733 46.8379 25.3547 47.3819 25.472L49.3019 25.888C50.0593 26.048 50.5873 26.2933 50.8859 26.624C51.1846 26.944 51.3339 27.344 51.3339 27.824C51.3339 28.2933 51.2059 28.7093 50.9499 29.072C50.6939 29.424 50.3313 29.696 49.8619 29.888C49.3926 30.0693 48.8433 30.16 48.2139 30.16Z" fill="#606060"/>
</svg>
